<svg width="149" height="58" viewBox="0 0 149 58" fill="none" xmlns="http://www.w3.org/2000/svg">
<g clip-path="url(#clip0)">
<path fill-rule="evenodd" clip-rule="evenodd" d="M26.528 37.7108C25.0953 36.8188 19.0497 33.0703 19.0497 33.0703C19.0497 33.0703 13.007 29.3157 11.5723 28.4276C11.4352 28.3427 11.2601 28.4384 11.2525 28.6012C11.2367 28.9414 11.2133 29.4393 11.2006 29.7173C11.1947 29.8523 11.2285 29.9844 11.2993 30.0988C11.6154 30.6101 12.5468 32.1162 13.016 32.876C13.1928 33.1626 13.2455 33.5102 13.1618 33.8375L11.949 38.5795C11.9005 38.7698 11.9667 38.9701 12.1184 39.0925C12.7436 39.5966 13.5162 40.1512 14.4479 40.7293C15.3789 41.3077 16.2175 41.7531 16.9442 42.0878C17.1204 42.1689 17.3263 42.1374 17.4704 42.0067L21.067 38.7445C21.3154 38.5193 21.6436 38.4081 21.9752 38.4373C22.8542 38.5144 24.5968 38.6683 25.1892 38.7208C25.322 38.7325 25.454 38.7027 25.5693 38.6353C25.807 38.4969 26.232 38.2487 26.5221 38.0793C26.6611 37.9982 26.6648 37.7959 26.528 37.7108Z" fill="#7159C1"/>
<path fill-rule="evenodd" clip-rule="evenodd" d="M16.3619 43.7089C16.2998 43.3289 16.0595 43.0017 15.7171 42.83C14.7578 42.3485 13.995 41.8879 13.7864 41.7597C13.5777 41.6315 12.8223 41.1585 11.9587 40.5189C11.6507 40.2907 11.2517 40.225 10.8876 40.343L10.6792 40.4103C9.23236 40.8794 8.1175 42.0494 7.71323 43.5247C6.72231 47.1409 4.85678 53.9496 4.01803 57.0106C3.89466 57.4603 4.43275 57.7909 4.7735 57.4754C7.09496 55.326 12.2585 50.545 15.0006 48.0056C16.1194 46.9698 16.6439 45.4367 16.3972 43.9267L16.3619 43.7089Z" fill="#7159C1"/>
<path fill-rule="evenodd" clip-rule="evenodd" d="M51.7609 2.53672C52.1999 1.94832 51.9367 1.50266 51.7405 1.32016C51.7405 1.32016 51.7402 1.31988 51.7399 1.31959C51.533 1.1554 51.2814 1.03841 50.9919 0.994071L44.6302 0.0183698C44.0399 -0.0720207 43.4491 0.175695 43.0948 0.661686L39.6234 5.42349C39.0893 6.15576 39.2722 7.12088 39.8942 7.63977C39.9394 7.6781 39.9518 7.74503 39.9205 7.79738C39.8942 7.84057 39.8441 7.86145 39.7975 7.8543L38.0468 7.58571L35.6351 7.21585C34.964 7.11316 34.292 7.39434 33.8892 7.94727L23.7418 21.8671C23.6098 22.0482 23.3633 22.0977 23.1731 21.9815L13.4048 16.012C12.7589 15.6173 11.9159 15.837 11.5402 16.5046C11.1741 17.1551 11.4342 17.9878 12.0671 18.3748L12.3196 18.529C12.4445 18.605 12.5118 18.7498 12.49 18.896L12.1935 20.8851C12.1652 21.0762 11.954 21.1763 11.7909 21.0765C11.7909 21.0765 10.3975 20.2384 10.3619 20.2163C9.20653 19.5007 7.69638 19.8682 6.98908 21.0373C6.35923 22.0785 6.58002 23.4026 7.45128 24.1858C7.47814 24.2104 7.73087 24.4072 7.79617 24.4475C7.79758 24.4484 7.799 24.4495 7.80041 24.4501C7.80069 24.4504 7.80098 24.4507 7.80098 24.4507L15.0982 28.971C19.0426 31.3816 22.0409 29.405 22.9769 28.6962C23.8077 28.0669 24.7516 27.3721 26.3262 28.3395C26.8905 28.6864 27.6029 28.6736 28.1711 28.3329L29.9877 27.2439C30.5237 26.9227 31.1911 26.9255 31.7249 27.2513L37.2581 30.633C37.4754 30.7657 37.757 30.7093 37.908 30.5025L51.4324 11.9788C52.5354 10.4902 51.719 9.76623 51.047 9.58831C51.0038 9.5783 50.9617 9.566 50.917 9.55914L47.6734 9.06199C47.6256 9.05426 47.5775 9.03367 47.5334 9.00649C47.3536 8.89551 47.2971 8.65695 47.4071 8.47474C48.5065 6.97214 51.7609 2.53672 51.7609 2.53672Z" fill="#7159C1"/>
</g>
<path d="M114.5 3C99.8632 3 88 14.8632 88 29.5C88 44.1368 99.8632 56 114.5 56C129.137 56 141 44.1368 141 29.5C141 14.8632 129.137 3 114.5 3ZM99.7748 44.2207C95.7778 40.2237 93.7858 35.0032 93.724 29.765L114.235 50.276C108.997 50.2142 103.776 48.2222 99.7748 44.2207ZM119.107 49.7902L94.2098 24.8934C96.3077 15.614 104.589 8.67983 114.5 8.67983C121.43 8.67983 127.551 12.0807 131.336 17.2879L128.439 19.7392C125.356 15.3446 120.264 12.4649 114.5 12.4649C107.093 12.4649 100.795 17.2217 98.4542 23.8378L120.167 45.5502C125.617 43.6201 129.795 39.0047 131.102 33.2895H122.07V29.5H135.32C135.32 39.4154 128.386 47.6923 119.107 49.7902Z" fill="#663399"/>
<path d="M74 23L62 35" stroke="#B2BEC3" stroke-linecap="round" stroke-linejoin="round"/>
<path d="M62 23L74 35" stroke="#B2BEC3" stroke-linecap="round" stroke-linejoin="round"/>
<defs>
<clipPath id="clip0">
<rect x="4" width="48" height="57.6" fill="white"/>
</clipPath>
</defs>
</svg>
