<svg width="190" height="43" viewBox="0 0 190 43" fill="none" xmlns="http://www.w3.org/2000/svg">
<g clip-path="url(#clip0)">
<path d="M65.72 31.539H61.096C61.0801 31.539 61.0644 31.5348 61.0506 31.5269C61.0367 31.519 61.0251 31.5077 61.017 31.494L56.17 23.262H53.918V31.446C53.9181 31.4582 53.9158 31.4702 53.9113 31.4815C53.9067 31.4928 53.9 31.503 53.8914 31.5117C53.8829 31.5203 53.8727 31.5272 53.8614 31.5319C53.8502 31.5366 53.8382 31.539 53.826 31.539H49.844C49.8196 31.539 49.7962 31.5293 49.7789 31.512C49.7617 31.4948 49.752 31.4714 49.752 31.447V11.345C49.752 11.3206 49.7617 11.2972 49.7789 11.2799C49.7962 11.2627 49.8196 11.253 49.844 11.253H57.559C62.18 11.253 64.725 13.346 64.725 17.145C64.7698 18.5407 64.3152 19.9065 63.443 20.997C62.7014 21.8939 61.7245 22.5664 60.622 22.939L65.797 31.397C65.8053 31.4112 65.8097 31.4275 65.8097 31.444C65.8097 31.4605 65.8053 31.4767 65.797 31.491C65.7894 31.505 65.7783 31.5167 65.7648 31.5251C65.7513 31.5336 65.7359 31.5383 65.72 31.539ZM53.918 14.76V19.699H57.364C59.495 19.699 60.531 18.864 60.531 17.145C60.531 16.057 59.986 14.76 57.392 14.76H53.918Z" fill="#7159C1"/>
<path d="M73.509 31.607C69.273 31.607 66.427 28.585 66.427 24.092C66.427 19.755 69.406 16.607 73.509 16.607C77.729 16.607 80.564 19.615 80.564 24.092C80.564 28.445 77.597 31.607 73.509 31.607ZM73.509 20.083C71.487 20.081 70.227 21.618 70.227 24.092C70.227 26.6 71.483 28.157 73.506 28.157C75.511 28.157 76.757 26.599 76.757 24.092C76.76 21.618 75.515 20.081 73.509 20.081V20.083Z" fill="#7159C1"/>
<path d="M89.109 20.081C89.7576 20.0133 90.4071 20.2002 90.9206 20.6023C91.434 21.0043 91.7712 21.5901 91.861 22.236C91.8654 22.2566 91.8767 22.2751 91.8931 22.2884C91.9094 22.3017 91.9299 22.309 91.951 22.309H95.488C95.5008 22.309 95.5135 22.3063 95.5252 22.3012C95.5369 22.296 95.5474 22.2884 95.556 22.279C95.5646 22.2696 95.5711 22.2585 95.5753 22.2465C95.5794 22.2344 95.581 22.2217 95.58 22.209C95.29 18.649 92.966 16.607 89.193 16.607C88.2219 16.5715 87.2547 16.7484 86.359 17.1253C85.4633 17.5021 84.6606 18.0699 84.007 18.789C82.7494 20.3056 82.0941 22.2321 82.166 24.201C82.166 28.768 84.805 31.607 89.053 31.607C92.813 31.607 95.191 29.596 95.578 26.089C95.5794 26.076 95.578 26.063 95.5741 26.0506C95.5701 26.0382 95.5636 26.0267 95.555 26.017C95.5465 26.0073 95.5361 25.9995 95.5243 25.9942C95.5126 25.9888 95.4999 25.986 95.487 25.986H91.95C91.9288 25.986 91.9082 25.9934 91.8918 26.0069C91.8754 26.0204 91.8642 26.0392 91.86 26.06C91.581 27.474 90.689 28.133 89.053 28.133C86.366 28.131 85.966 25.634 85.966 24.146C85.966 22.181 86.791 20.08 89.105 20.08" fill="#7159C1"/>
<path d="M117.416 31.607C113.016 31.607 110.389 28.816 110.389 24.146C110.389 19.637 113.202 16.607 117.389 16.607C121.5 16.607 124.054 19.413 124.054 23.929C124.054 24.417 124.026 24.829 123.999 25.229V25.242C123.997 25.2652 123.987 25.2869 123.97 25.3029C123.954 25.3188 123.931 25.3278 123.908 25.328H114.23C114.443 27.297 115.496 28.296 117.36 28.296C117.904 28.383 118.461 28.2727 118.93 27.985C119.4 27.6972 119.751 27.251 119.92 26.727C119.926 26.7091 119.938 26.6935 119.953 26.6824C119.969 26.6713 119.987 26.6652 120.006 26.665H123.515C123.528 26.6649 123.541 26.6677 123.554 26.6732C123.566 26.6788 123.576 26.6869 123.585 26.697C123.594 26.7071 123.6 26.719 123.604 26.7317C123.607 26.7445 123.608 26.7579 123.606 26.771C123.189 29.616 120.639 31.607 117.416 31.607ZM117.332 19.972C116.627 19.9145 115.927 20.1275 115.374 20.5678C114.821 21.008 114.456 21.6424 114.354 22.342H120.201C120.125 21.6512 119.783 21.0171 119.248 20.5745C118.712 20.132 118.025 19.9158 117.332 19.972V19.972Z" fill="#7159C1"/>
<path d="M135.318 16.604H132.067V12.996C132.067 12.9718 132.057 12.9485 132.04 12.9313C132.023 12.9141 132 12.9043 131.976 12.904H128.355C128.331 12.9043 128.308 12.9141 128.291 12.9313C128.274 12.9485 128.264 12.9718 128.264 12.996V16.604H125.793C125.78 16.6039 125.768 16.6066 125.756 16.6117C125.744 16.6168 125.734 16.6243 125.725 16.6337C125.716 16.6431 125.71 16.6542 125.706 16.6663C125.701 16.6784 125.7 16.6913 125.701 16.704V19.967C125.701 19.9914 125.711 20.0148 125.728 20.032C125.745 20.0493 125.769 20.059 125.793 20.059H128.263V27.685C128.263 30.937 130.092 31.603 132.839 31.603H135.318C135.342 31.603 135.366 31.5933 135.383 31.576C135.4 31.5588 135.41 31.5354 135.41 31.511V28.304C135.41 28.2796 135.4 28.2562 135.383 28.2389C135.366 28.2217 135.342 28.212 135.318 28.212H133.48C132.38 28.212 132.068 27.912 132.068 26.88V20.06H135.318C135.342 20.06 135.366 20.0503 135.383 20.033C135.4 20.0158 135.41 19.9924 135.41 19.968V16.704C135.411 16.6913 135.41 16.6784 135.405 16.6663C135.401 16.6542 135.395 16.6431 135.386 16.6337C135.377 16.6243 135.367 16.6168 135.355 16.6117C135.343 16.6066 135.331 16.6039 135.318 16.604" fill="#7159C1"/>
<path d="M145.729 22.917L142.666 21.939C141.524 21.549 141.308 21.239 141.308 20.807C141.308 20.375 141.508 19.758 143.194 19.758C144.507 19.758 145.306 20.304 145.331 21.217C145.332 21.2411 145.341 21.264 145.359 21.2808C145.376 21.2976 145.399 21.307 145.423 21.307H148.958C148.97 21.3069 148.982 21.3044 148.993 21.2996C149.005 21.2948 149.015 21.2878 149.023 21.279C149.032 21.2704 149.039 21.2601 149.043 21.2488C149.048 21.2374 149.05 21.2253 149.05 21.213C149.087 20.5094 148.942 19.8081 148.63 19.1766C148.317 18.545 147.848 18.0045 147.266 17.607C146.062 16.8923 144.676 16.5448 143.277 16.607C140.47 16.607 137.45 17.788 137.393 21.107C137.393 23.687 139.27 24.607 141.106 25.163L143.444 25.896C145.138 26.456 145.581 26.63 145.581 27.276C145.581 28.003 145.181 28.488 143.221 28.488C141.658 28.484 140.858 27.907 140.778 26.722C140.777 26.6987 140.767 26.6767 140.75 26.6605C140.733 26.6444 140.71 26.6352 140.687 26.635H137.15C137.138 26.635 137.126 26.6374 137.115 26.6421C137.103 26.6468 137.093 26.6537 137.085 26.6623C137.076 26.671 137.069 26.6812 137.065 26.6925C137.06 26.7038 137.058 26.7159 137.058 26.728C137.058 30.758 140.425 31.607 143.25 31.607C144.718 31.6535 146.171 31.2962 147.45 30.574C148.068 30.1985 148.573 29.6641 148.914 29.0264C149.255 28.3888 149.418 27.6713 149.387 26.949C149.387 24.618 147.926 23.649 145.731 22.92" fill="#7159C1"/>
<path d="M157.715 31.607C153.315 31.607 150.688 28.816 150.688 24.146C150.688 19.637 153.501 16.607 157.688 16.607C161.799 16.607 164.353 19.413 164.353 23.929C164.353 24.417 164.325 24.829 164.298 25.229V25.242C164.296 25.2652 164.286 25.2869 164.269 25.3029C164.253 25.3188 164.23 25.3278 164.207 25.328H154.529C154.742 27.297 155.795 28.296 157.659 28.296C158.203 28.383 158.76 28.2727 159.229 27.985C159.699 27.6972 160.05 27.251 160.219 26.727C160.225 26.7091 160.237 26.6935 160.252 26.6824C160.268 26.6713 160.286 26.6652 160.305 26.665H163.814C163.827 26.665 163.84 26.6678 163.853 26.6733C163.865 26.6788 163.875 26.6869 163.884 26.697C163.893 26.7071 163.899 26.719 163.903 26.7317C163.906 26.7445 163.907 26.7579 163.905 26.771C163.488 29.616 160.938 31.607 157.715 31.607ZM157.631 19.972C156.927 19.9148 156.227 20.1279 155.674 20.5681C155.121 21.0084 154.756 21.6426 154.654 22.342H160.5C160.424 21.6512 160.082 21.0171 159.547 20.5745C159.011 20.132 158.324 19.9158 157.631 19.972V19.972Z" fill="#7159C1"/>
<path d="M179.725 31.62H176.968C176.735 31.619 176.505 31.5715 176.291 31.4803C176.077 31.3891 175.884 31.2561 175.722 31.089C175.327 30.6637 175.104 30.1065 175.098 29.526C174.584 30.2073 173.907 30.7486 173.129 31.1003C172.351 31.452 171.497 31.6029 170.646 31.539C167.859 31.539 165.986 29.849 165.986 27.333C165.986 24.867 167.67 23.316 170.992 22.724L173.386 22.264C174.548 22.076 174.816 21.87 174.816 21.164C174.816 20.316 174.008 19.849 172.54 19.849C170.993 19.849 170.209 20.328 170.209 21.272C170.209 21.2964 170.199 21.3198 170.182 21.337C170.165 21.3543 170.141 21.364 170.117 21.364H166.579C166.567 21.3641 166.555 21.3618 166.543 21.3573C166.532 21.3527 166.522 21.346 166.513 21.3374C166.505 21.3288 166.498 21.3187 166.493 21.3074C166.488 21.2962 166.486 21.2842 166.486 21.272C166.486 18.438 168.896 16.607 172.623 16.607C176.677 16.607 178.647 18.381 178.647 22.03V27.793C178.647 28.313 178.89 28.566 179.391 28.566H179.725C179.749 28.566 179.773 28.5757 179.79 28.5929C179.807 28.6102 179.817 28.6336 179.817 28.658V31.527C179.817 31.5392 179.815 31.5512 179.81 31.5625C179.806 31.5738 179.799 31.584 179.79 31.5927C179.782 31.6013 179.772 31.6082 179.76 31.6129C179.749 31.6176 179.737 31.62 179.725 31.62V31.62ZM174.843 24.733C174.602 24.8424 174.348 24.9198 174.087 24.963L172.001 25.395C170.51 25.72 169.901 26.211 169.901 27.095C169.901 28.295 170.836 28.545 171.62 28.545C172.051 28.5434 172.478 28.4557 172.875 28.2869C173.271 28.1182 173.63 27.8718 173.931 27.5623C174.231 27.2529 174.466 26.8865 174.623 26.4848C174.78 26.083 174.854 25.654 174.843 25.223V24.733Z" fill="#7159C1"/>
<path d="M189.908 20.06C189.932 20.06 189.956 20.0503 189.973 20.033C189.99 20.0158 190 19.9924 190 19.968V16.704C190.001 16.6913 190 16.6784 189.995 16.6663C189.991 16.6542 189.985 16.6431 189.976 16.6337C189.967 16.6243 189.957 16.6168 189.945 16.6117C189.933 16.6066 189.921 16.6039 189.908 16.604H186.657V12.996C186.657 12.9718 186.647 12.9485 186.63 12.9313C186.613 12.9141 186.59 12.9043 186.566 12.904H182.945C182.921 12.9043 182.898 12.9141 182.881 12.9313C182.864 12.9485 182.854 12.9718 182.854 12.996V16.604H180.382C180.369 16.6041 180.357 16.6068 180.345 16.612C180.334 16.6172 180.323 16.6247 180.315 16.6341C180.306 16.6435 180.3 16.6545 180.295 16.6666C180.291 16.6786 180.29 16.6913 180.291 16.704V19.967C180.291 19.9912 180.301 20.0145 180.318 20.0317C180.335 20.0489 180.358 20.0587 180.382 20.059H182.853V27.685C182.853 30.937 184.682 31.603 187.429 31.603H189.908C189.932 31.603 189.956 31.5933 189.973 31.576C189.99 31.5588 190 31.5354 190 31.511V28.304C190 28.2796 189.99 28.2562 189.973 28.2389C189.956 28.2217 189.932 28.212 189.908 28.212H188.07C186.97 28.212 186.658 27.912 186.658 26.88V20.06H189.908Z" fill="#7159C1"/>
<path d="M105.043 22.485L110.797 16.766C110.81 16.7531 110.819 16.7368 110.822 16.7191C110.826 16.7014 110.825 16.6829 110.818 16.666C110.811 16.6488 110.8 16.6339 110.785 16.6234C110.769 16.6129 110.751 16.6072 110.733 16.607H106.196C106.183 16.6063 106.171 16.6083 106.159 16.6128C106.148 16.6173 106.137 16.6242 106.128 16.633L101.028 21.633V16.7C101.028 16.6763 101.019 16.6533 101.003 16.636C100.987 16.6187 100.965 16.6083 100.941 16.607H97.32C97.3078 16.607 97.2958 16.6094 97.2846 16.6141C97.2733 16.6188 97.2631 16.6256 97.2546 16.6343C97.246 16.6429 97.2393 16.6532 97.2347 16.6645C97.2302 16.6758 97.2279 16.6878 97.228 16.7V31.507C97.2269 31.5197 97.2284 31.5326 97.2326 31.5447C97.2367 31.5568 97.2433 31.5679 97.2519 31.5773C97.2606 31.5867 97.2711 31.5942 97.2828 31.5993C97.2946 31.6044 97.3072 31.607 97.32 31.607H100.941C100.953 31.6064 100.965 31.6033 100.977 31.5978C100.988 31.5924 100.998 31.5848 101.006 31.5755C101.014 31.5662 101.02 31.5553 101.024 31.5435C101.028 31.5317 101.029 31.5193 101.028 31.507V26.495L102.319 25.216L106.602 31.564C106.61 31.5769 106.621 31.5876 106.635 31.5951C106.648 31.6026 106.663 31.6067 106.678 31.607H111.19C111.207 31.6068 111.223 31.6021 111.237 31.5933C111.252 31.5845 111.263 31.5719 111.271 31.557C111.28 31.5415 111.284 31.5238 111.283 31.5061C111.282 31.4884 111.275 31.4713 111.265 31.457L105.043 22.485Z" fill="#7159C1"/>
<path d="M16.706 27.979C15.642 27.321 11.153 24.553 11.153 24.553C11.153 24.553 6.666 21.78 5.6 21.124C5.57666 21.1098 5.54999 21.102 5.52268 21.1014C5.49537 21.1007 5.46836 21.1072 5.44436 21.1203C5.42037 21.1334 5.40022 21.1525 5.38594 21.1758C5.37166 21.1991 5.36375 21.2257 5.363 21.253C5.351 21.501 5.334 21.871 5.324 22.077C5.31919 22.1763 5.34464 22.2746 5.397 22.359L6.672 24.409C6.73696 24.514 6.78001 24.631 6.79857 24.753C6.81713 24.875 6.81081 24.9995 6.78 25.119L5.88 28.619C5.86167 28.6881 5.86382 28.7609 5.88619 28.8288C5.90856 28.8966 5.95019 28.9565 6.006 29.001C6.55745 29.439 7.1352 29.8427 7.736 30.21C8.33291 30.5811 8.95208 30.915 9.59 31.21C9.65389 31.2394 9.725 31.2494 9.79451 31.2387C9.86402 31.2281 9.92887 31.1972 9.981 31.15L12.651 28.743C12.7416 28.661 12.8481 28.5985 12.9639 28.5595C13.0797 28.5204 13.2022 28.5056 13.324 28.516L15.711 28.725C15.8093 28.7337 15.9078 28.7117 15.993 28.662L16.7 28.251C16.7234 28.2369 16.7427 28.2169 16.7562 28.1931C16.7696 28.1693 16.7766 28.1424 16.7766 28.115C16.7766 28.0877 16.7696 28.0608 16.7562 28.037C16.7427 28.0132 16.7234 27.9932 16.7 27.979" fill="#7159C1"/>
<path d="M9.168 32.45C9.14551 32.311 9.09049 32.1793 9.00742 32.0657C8.92435 31.952 8.81558 31.8596 8.69 31.796C7.979 31.437 7.413 31.096 7.258 30.996C7.103 30.896 6.543 30.551 5.9 30.075C5.78798 29.9916 5.65766 29.9362 5.51989 29.9134C5.38212 29.8906 5.24089 29.9011 5.108 29.944L4.953 29.994C4.42277 30.1678 3.9441 30.4708 3.56006 30.8756C3.17602 31.2804 2.89868 31.7743 2.753 32.313L0.0129966 42.353C-0.00746947 42.4246 -0.00398275 42.501 0.0229266 42.5704C0.0498359 42.6399 0.0986958 42.6987 0.162077 42.7379C0.225458 42.777 0.299894 42.7944 0.374066 42.7874C0.448237 42.7804 0.518088 42.7493 0.572997 42.699L8.158 35.649C8.56734 35.2672 8.87608 34.7902 9.05681 34.2604C9.23754 33.7306 9.28466 33.1644 9.194 32.612L9.168 32.45Z" fill="#7159C1"/>
<path d="M35.281 1.877C35.3395 1.81715 35.3856 1.74628 35.4166 1.6685C35.4475 1.59072 35.4627 1.50757 35.4613 1.42387C35.46 1.34017 35.442 1.25757 35.4084 1.18087C35.3749 1.10416 35.3265 1.03487 35.266 0.977003V0.977003C35.1056 0.849554 34.9146 0.766451 34.712 0.736003L29.999 0.0140026C29.784 -0.0185896 29.5643 0.00857881 29.3637 0.0925342C29.1632 0.17649 28.9896 0.313996 28.862 0.490003L26.291 4.013C26.11 4.26073 26.03 4.56798 26.0672 4.87249C26.1043 5.17701 26.2558 5.45603 26.491 5.653C26.5067 5.66548 26.5177 5.68284 26.5224 5.70232C26.5272 5.7218 26.5252 5.7423 26.5169 5.76056C26.5087 5.77881 26.4946 5.79379 26.4768 5.80311C26.4591 5.81243 26.4387 5.81556 26.419 5.812L25.119 5.612L23.333 5.338C23.0886 5.30095 22.8387 5.33182 22.6107 5.42724C22.3826 5.52265 22.1852 5.67894 22.04 5.879L14.524 16.179C14.4773 16.2434 14.4081 16.2879 14.3301 16.3037C14.2521 16.3194 14.171 16.3053 14.103 16.264L6.872 11.847C6.7581 11.7777 6.63138 11.732 6.49942 11.7128C6.36747 11.6936 6.23299 11.7012 6.10405 11.7352C5.97511 11.7692 5.85435 11.8288 5.74901 11.9106C5.64367 11.9923 5.55591 12.0945 5.491 12.211C5.36626 12.4477 5.33718 12.7233 5.40975 12.9808C5.48233 13.2384 5.65102 13.4582 5.881 13.595L6.068 13.709C6.11343 13.7369 6.14962 13.7776 6.17203 13.826C6.19444 13.8744 6.20208 13.9283 6.194 13.981L5.974 15.453C5.9691 15.4854 5.9563 15.5161 5.93674 15.5424C5.91717 15.5688 5.89144 15.5899 5.86181 15.6039C5.83217 15.6179 5.79954 15.6244 5.76679 15.6229C5.73404 15.6213 5.70218 15.6118 5.674 15.595L4.616 14.959C4.41248 14.833 4.18594 14.7486 3.94954 14.7109C3.71314 14.6732 3.47161 14.6829 3.23898 14.7394C3.00636 14.7959 2.78728 14.898 2.59449 15.0399C2.40171 15.1819 2.23905 15.3607 2.116 15.566C1.89352 15.9337 1.80597 16.3673 1.86838 16.7924C1.93078 17.2176 2.13925 17.6078 2.458 17.896C2.478 17.914 2.665 18.06 2.713 18.09L8.113 21.435C8.9794 22.0293 10.0134 22.3305 11.0634 22.2945C12.1134 22.2586 13.1243 21.8872 13.948 21.235C14.2593 20.8977 14.6825 20.685 15.1388 20.6364C15.5952 20.5879 16.0537 20.7068 16.429 20.971C16.635 21.0957 16.8712 21.1616 17.112 21.1616C17.3528 21.1616 17.589 21.0957 17.795 20.971L19.14 20.165C19.3346 20.0484 19.5574 19.9872 19.7843 19.9883C20.0112 19.9894 20.2335 20.0525 20.427 20.171L24.527 22.671C24.6051 22.7179 24.6979 22.7336 24.7871 22.7151C24.8762 22.6966 24.9551 22.6451 25.008 22.571L35.037 8.863C35.854 7.763 35.249 7.226 34.752 7.094C34.72 7.087 34.689 7.077 34.652 7.072L32.253 6.7C32.2068 6.6918 32.1632 6.67253 32.1261 6.64385C32.0889 6.61516 32.0592 6.57791 32.0396 6.53527C32.0199 6.49264 32.0109 6.44588 32.0132 6.39899C32.0156 6.3521 32.0292 6.30647 32.053 6.266C32.867 5.154 35.278 1.873 35.278 1.873" fill="#7159C1"/>
</g>
<defs>
<clipPath id="clip0">
<rect width="190" height="42.792" fill="white"/>
</clipPath>
</defs>
</svg>
